<?xml version="1.0" standalone="no"?>
<!DOCTYPE svg PUBLIC "-//W3C//DTD SVG 20010904//EN"
 "http://www.w3.org/TR/2001/REC-SVG-20010904/DTD/svg10.dtd">
<svg version="1.0" xmlns="http://www.w3.org/2000/svg"
 width="128.000000pt" height="128.000000pt" viewBox="0 0 128.000000 128.000000"
 preserveAspectRatio="xMidYMid meet">

<g transform="translate(0.000000,128.000000) scale(0.100000,-0.100000)"
fill="#000000" stroke="none">
<path d="M540 1239 c-160 -11 -293 -56 -368 -124 -125 -112 -43 -236 205 -307
69 -20 100 -23 263 -23 193 0 231 6 362 55 75 28 155 99 164 146 8 45 0 76
-32 113 -29 35 -162 102 -239 121 -70 17 -243 26 -355 19z"/>
<path d="M1126 862 c-123 -134 -456 -186 -754 -117 -92 22 -183 68 -226 115
l-36 40 0 -82 c0 -101 15 -131 92 -183 219 -148 729 -135 910 23 49 44 59 75
56 168 l-3 79 -39 -43z"/>
<path d="M1145 636 c-65 -100 -269 -166 -514 -166 -212 0 -399 57 -481 146
l-40 44 0 -88 c0 -104 14 -133 85 -180 110 -73 246 -105 440 -105 248 0 453
67 513 166 21 34 34 142 23 188 l-6 26 -20 -31z"/>
<path d="M1138 380 c-19 -28 -50 -50 -110 -79 -116 -56 -218 -76 -398 -75
-223 0 -384 48 -477 140 l-43 43 0 -89 c0 -90 0 -90 37 -131 44 -48 123 -91
230 -121 69 -20 100 -23 263 -23 161 1 195 3 263 23 101 29 183 71 227 116 30
32 35 44 41 111 4 41 4 85 1 99 -7 23 -8 23 -34 -14z"/>
</g>
</svg>
